<svg id="visual" viewBox="0 0 960 540" width="960" height="540" xmlns="http://www.w3.org/2000/svg" xmlns:xlink="http://www.w3.org/1999/xlink" version="1.1"><rect x="0" y="0" width="960" height="540" fill="#001220"></rect><path d="M0 336L22.8 332.3C45.7 328.7 91.3 321.3 137 319.5C182.7 317.7 228.3 321.3 274 331.3C319.7 341.3 365.3 357.7 411.2 356C457 354.3 503 334.7 548.8 334.3C594.7 334 640.3 353 686 359.7C731.7 366.3 777.3 360.7 823 353.5C868.7 346.3 914.3 337.7 937.2 333.3L960 329L960 541L937.2 541C914.3 541 868.7 541 823 541C777.3 541 731.7 541 686 541C640.3 541 594.7 541 548.8 541C503 541 457 541 411.2 541C365.3 541 319.7 541 274 541C228.3 541 182.7 541 137 541C91.3 541 45.7 541 22.8 541L0 541Z" fill="#fa7268"></path><path d="M0 419L22.8 415.7C45.7 412.3 91.3 405.7 137 404.2C182.7 402.7 228.3 406.3 274 410.5C319.7 414.7 365.3 419.3 411.2 416C457 412.7 503 401.3 548.8 395.7C594.7 390 640.3 390 686 392.7C731.7 395.3 777.3 400.7 823 399.7C868.7 398.7 914.3 391.3 937.2 387.7L960 384L960 541L937.2 541C914.3 541 868.7 541 823 541C777.3 541 731.7 541 686 541C640.3 541 594.7 541 548.8 541C503 541 457 541 411.2 541C365.3 541 319.7 541 274 541C228.3 541 182.7 541 137 541C91.3 541 45.7 541 22.8 541L0 541Z" fill="#ef5f67"></path><path d="M0 434L22.8 428.7C45.7 423.3 91.3 412.7 137 410.3C182.7 408 228.3 414 274 415C319.7 416 365.3 412 411.2 415.2C457 418.3 503 428.7 548.8 433.8C594.7 439 640.3 439 686 434.7C731.7 430.3 777.3 421.7 823 420.7C868.7 419.7 914.3 426.3 937.2 429.7L960 433L960 541L937.2 541C914.3 541 868.7 541 823 541C777.3 541 731.7 541 686 541C640.3 541 594.7 541 548.8 541C503 541 457 541 411.2 541C365.3 541 319.7 541 274 541C228.3 541 182.7 541 137 541C91.3 541 45.7 541 22.8 541L0 541Z" fill="#e34c67"></path><path d="M0 475L22.8 475.7C45.7 476.3 91.3 477.7 137 479.8C182.7 482 228.3 485 274 478.7C319.7 472.3 365.3 456.7 411.2 450C457 443.3 503 445.7 548.8 445.7C594.7 445.7 640.3 443.3 686 448.7C731.7 454 777.3 467 823 471.3C868.7 475.7 914.3 471.3 937.2 469.2L960 467L960 541L937.2 541C914.3 541 868.7 541 823 541C777.3 541 731.7 541 686 541C640.3 541 594.7 541 548.8 541C503 541 457 541 411.2 541C365.3 541 319.7 541 274 541C228.3 541 182.7 541 137 541C91.3 541 45.7 541 22.8 541L0 541Z" fill="#d53867"></path><path d="M0 495L22.8 494.8C45.7 494.7 91.3 494.3 137 493.2C182.7 492 228.3 490 274 490.3C319.7 490.7 365.3 493.3 411.2 493.3C457 493.3 503 490.7 548.8 487.2C594.7 483.7 640.3 479.3 686 481C731.7 482.7 777.3 490.3 823 492.5C868.7 494.7 914.3 491.3 937.2 489.7L960 488L960 541L937.2 541C914.3 541 868.7 541 823 541C777.3 541 731.7 541 686 541C640.3 541 594.7 541 548.8 541C503 541 457 541 411.2 541C365.3 541 319.7 541 274 541C228.3 541 182.7 541 137 541C91.3 541 45.7 541 22.8 541L0 541Z" fill="#c62368"></path></svg>